<svg xmlns="http://www.w3.org/2000/svg" viewBox="0 0 6.138 3.435">
  <path fill="#8ec07c"
    d="m2.365.004-.99 3.427s.415 0 .688-.002L2.955.004h-.59zM.99.008 0 3.435s.415 0 .688-.002L1.579.008H.99z" />
  <path fill="#fabd2f"
    d="m3.74 0-.705 2.443-.284.984s.415 0 .688-.002l.255-.982H4.79c.43 0 .761-.112.996-.335a1.05 1.05 0 0 0 .19-.25 1.42 1.42 0 0 0 .162-.7c0-.221-.044-.411-.128-.572a.949.949 0 0 0-.224-.282C5.55.1 5.219 0 4.79 0h-.46zm.438.586h.612c.21 0 .373.053.487.16.115.105.173.257.173.453 0 .207-.058.369-.173.485-.114.115-.276.173-.487.173h-.943z" />
</svg>
